STARTFONT 2.3
FONT -FontForge-Satisfy-Book-R-Normal--18-180-72-72-P-78-ISO10646-1
SIZE 18 72 72  4
FONTBOUNDINGBOX 21 27 -4 -9
COMMENT "Generated by fontforge, http://fontforge.sourceforge.net"
COMMENT "Copyright (c) 2011 by Font Diner, Inc. All rights reserved."
STARTPROPERTIES 40
FOUNDRY "FontForge"
FAMILY_NAME "Satisfy"
WEIGHT_NAME "Book"
SLANT "R"
SETWIDTH_NAME "Normal"
ADD_STYLE_NAME ""
PIXEL_SIZE 18
POINT_SIZE 180
RESOLUTION_X 72
RESOLUTION_Y 72
SPACING "P"
AVERAGE_WIDTH 78
CHARSET_REGISTRY "ISO10646"
CHARSET_ENCODING "1"
FONTNAME_REGISTRY ""
CHARSET_COLLECTIONS "ISO10646-1"
BITS_PER_PIXEL 4
FONT_NAME "Satisfy-Regular"
FACE_NAME "Satisfy Regular"
COPYRIGHT "Copyright (c) 2011 by Font Diner, Inc. All rights reserved."
FONT_VERSION "1.001"
FONT_ASCENT 14
FONT_DESCENT 4
UNDERLINE_POSITION -2
UNDERLINE_THICKNESS 1
X_HEIGHT 7
CAP_HEIGHT 13
RAW_ASCENT 799
RAW_DESCENT 200
NORM_SPACE 5
RELATIVE_WEIGHT 40
RELATIVE_SETWIDTH 50
SUPERSCRIPT_X 0
SUPERSCRIPT_Y 8
SUPERSCRIPT_SIZE 11
SUBSCRIPT_X 0
SUBSCRIPT_Y 2
SUBSCRIPT_SIZE 11
AVG_LOWERCASE_WIDTH 73
AVG_UPPERCASE_WIDTH 101
ENDPROPERTIES
CHARS 227
STARTCHAR space
ENCODING 32
SWIDTH 280 0
DWIDTH 5 0
BBX 1 1 0 0
BITMAP
00
ENDCHAR
STARTCHAR exclam
ENCODING 33
SWIDTH 249 0
DWIDTH 4 0
BBX 6 15 -1 -1
BITMAP
000022
0002FA
0005F6
0009F2
000CD0
001F90
004F50
007F10
00BC00
00E800
03F400
036000
024000
3FE000
161000
ENDCHAR
STARTCHAR quotedbl
ENCODING 34
SWIDTH 249 0
DWIDTH 4 0
BBX 6 7 0 7
BITMAP
001102
03F3AA
07E1F5
0B94F1
0E58C0
3F1B80
010100
ENDCHAR
STARTCHAR numbersign
ENCODING 35
SWIDTH 417 0
DWIDTH 8 0
BBX 9 10 -1 2
BITMAP
0000120210
0000C62E10
0002F17B00
03BDFDEEB0
057D85F420
001E16A000
1BEFEFED20
26D84F4200
01F26D0000
05C0A70000
ENDCHAR
STARTCHAR dollar
ENCODING 36
SWIDTH 292 0
DWIDTH 5 0
BBX 7 14 -1 -1
BITMAP
00003A00
0005CC20
007C27A0
00E505D0
00E50A80
00BA0100
005F2000
000D9000
0405E000
8802F200
7B06C000
08E92000
04B00000
01100000
ENDCHAR
STARTCHAR percent
ENCODING 37
SWIDTH 574 0
DWIDTH 10 0
BBX 11 15 0 -1
BITMAP
000000000110
01BE90005E20
09A0D302E500
1F20C50B9000
4D01F27C0000
3D07B3E30000
0DDD2C700000
01308B000000
0003E27EB000
000D65D1A600
008C0C609800
04F30F20C600
1D800F24E100
9D100ADE5000
410000420000
ENDCHAR
STARTCHAR ampersand
ENCODING 38
SWIDTH 460 0
DWIDTH 8 0
BBX 9 15 -1 -1
BITMAP
0000003400
00000A9D40
00008A0B40
0000E67C00
0001FBE200
0002FE3000
0008F60000
008FF70000
06F7F80000
2FA0FA0000
AE10CD0030
DA009F2940
CD106FD400
5FECEFD100
036519B300
ENDCHAR
STARTCHAR quotesingle
ENCODING 39
SWIDTH 113 0
DWIDTH 2 0
BBX 4 7 0 7
BITMAP
0011
03F3
07E0
0B90
0E50
3F10
0100
ENDCHAR
STARTCHAR parenleft
ENCODING 40
SWIDTH 234 0
DWIDTH 4 0
BBX 6 17 0 -2
BITMAP
000027
0002D5
000B80
005E10
00C800
03F200
08C000
0D8000
2F5000
5F2000
7E0000
9C0000
AB0000
9A0000
7B0000
4E0000
0A0000
ENDCHAR
STARTCHAR parenright
ENCODING 41
SWIDTH 204 0
DWIDTH 4 0
BBX 6 17 -2 -2
BITMAP
000070
0001E1
0000D4
0000C6
0000D7
0000E6
0001F5
0004F3
0007E0
0009B0
000E60
004F20
009B00
01E400
09B000
5E2000
A30000
ENDCHAR
STARTCHAR asterisk
ENCODING 42
SWIDTH 327 0
DWIDTH 6 0
BBX 6 6 1 7
BITMAP
006E30
A77C02
9DDBDD
07DB32
9F4E90
270970
ENDCHAR
STARTCHAR plus
ENCODING 43
SWIDTH 350 0
DWIDTH 6 0
BBX 8 7 -1 3
BITMAP
00006300
0001F400
0027F320
0DFFFFF2
142C8000
001F5000
00171000
ENDCHAR
STARTCHAR comma
ENCODING 44
SWIDTH 200 0
DWIDTH 4 0
BBX 3 5 -1 -3
BITMAP
0410
6F80
2D60
2A00
1000
ENDCHAR
STARTCHAR hyphen
ENCODING 45
SWIDTH 353 0
DWIDTH 6 0
BBX 7 3 -1 4
BITMAP
02344430
2FFEEED0
13000000
ENDCHAR
STARTCHAR period
ENCODING 46
SWIDTH 213 0
DWIDTH 4 0
BBX 3 3 -1 -1
BITMAP
0330
6FB0
2510
ENDCHAR
STARTCHAR slash
ENCODING 47
SWIDTH 262 0
DWIDTH 5 0
BBX 9 15 -2 -1
BITMAP
0000000030
0000000B90
0000006E10
000001D600
000007C000
00001E3000
0000990000
0003E20000
000B800000
004E100000
00C8000000
06E1000000
1E80000000
7F10000000
3200000000
ENDCHAR
STARTCHAR zero
ENCODING 48
SWIDTH 489 0
DWIDTH 9 0
BBX 8 15 0 -1
BITMAP
00000310
0002CEE2
001DA0AA
009D105E
02F6004F
09E1005F
0EA0006F
3F70009D
5F4000DA
6F3003F6
6F2008E1
4F301E80
1F70AD10
08ECD200
00550000
ENDCHAR
STARTCHAR one
ENCODING 49
SWIDTH 272 0
DWIDTH 5 0
BBX 5 14 0 -1
BITMAP
003D70
01EF60
007F20
008E00
00BA00
00E600
02F300
06E000
0AA000
0E6000
3F3000
8F1000
AF2000
230000
ENDCHAR
STARTCHAR two
ENCODING 50
SWIDTH 448 0
DWIDTH 8 0
BBX 9 15 -1 -1
BITMAP
0000013200
00019AAF50
000CA00DB0
006F300DB0
006F201F80
0000007F20
000001E900
00000AD100
00008E2000
0009E30000
00AD300000
0AD2000000
5F78AA8100
4FFDDEF200
0410003000
ENDCHAR
STARTCHAR three
ENCODING 51
SWIDTH 462 0
DWIDTH 8 0
BBX 8 15 0 -1
BITMAP
00002310
004DECE4
02FA009D
08F2009E
07F400DA
002008F2
00007F50
002BF600
00386D70
000008D0
00000AC0
88001E80
FD009E10
7FDCD200
03651000
ENDCHAR
STARTCHAR four
ENCODING 52
SWIDTH 452 0
DWIDTH 8 0
BBX 8 15 0 -1
BITMAP
00000001
000009E9
00007EE6
0005F4F2
003E64D0
02E808A0
1DA00C70
CD457F90
CFECDFF2
12009E20
0000DB00
0001F900
0005F800
0006F700
00014000
ENDCHAR
STARTCHAR five
ENCODING 53
SWIDTH 444 0
DWIDTH 8 0
BBX 9 15 0 -1
BITMAP
0000001000
002BDFFE30
007C67BF30
00B6000200
01F1000000
06B0100000
0B9BFF5000
0EF94CB000
087007C000
0000089000
04000C5000
AA004C0000
EF77E40000
8FFF500000
0462000000
ENDCHAR
STARTCHAR six
ENCODING 54
SWIDTH 477 0
DWIDTH 9 0
BBX 8 15 0 -1
BITMAP
00000130
00008DE7
0008C19C
004F30D9
00D90130
05F34610
0BDBCAD1
1FFD10F5
3FD600F6
5F4002F5
5F3007F1
3F400CA0
0E807E20
06FAE400
00461000
ENDCHAR
STARTCHAR seven
ENCODING 55
SWIDTH 406 0
DWIDTH 7 0
BBX 8 15 0 -1
BITMAP
00001110
03DFFFFE
08D8437E
020001D6
00000AB0
00005F20
0001E800
0009E100
002F7000
00AE1000
02F80000
08F30000
0DD00000
1FC00000
03100000
ENDCHAR
STARTCHAR eight
ENCODING 56
SWIDTH 444 0
DWIDTH 8 0
BBX 9 15 -1 -1
BITMAP
0000013100
00005C8B50
0003E203D0
000AB006B0
000CC03E50
000AF5E800
0004FF8000
0008FF4000
009D3EB000
06E208F200
0E8006F400
2F3006F300
1F400BB000
0AC7CC2000
0046500000
ENDCHAR
STARTCHAR nine
ENCODING 57
SWIDTH 462 0
DWIDTH 8 0
BBX 8 15 0 -1
BITMAP
00001310
0006EAD1
006E20A7
01E7007A
07E1007C
0CA002EB
0D8007F9
0D801DE7
0AD299F3
02EE86D0
00001E80
35009E10
9D39F400
6FFE5000
04510000
ENDCHAR
STARTCHAR colon
ENCODING 58
SWIDTH 226 0
DWIDTH 4 0
BBX 4 6 -1 -1
BITMAP
05EA
05A3
0000
0330
6FB0
2510
ENDCHAR
STARTCHAR semicolon
ENCODING 59
SWIDTH 212 0
DWIDTH 4 0
BBX 4 8 -1 -3
BITMAP
08F7
0792
0000
0410
6F80
2D60
2A00
1000
ENDCHAR
STARTCHAR less
ENCODING 60
SWIDTH 271 0
DWIDTH 5 0
BBX 7 8 -1 2
BITMAP
00001410
0004E900
006F8000
08F60000
1EA00000
07F20000
00DB0000
004E3000
ENDCHAR
STARTCHAR equal
ENCODING 61
SWIDTH 374 0
DWIDTH 7 0
BBX 8 4 -1 4
BITMAP
01BDEED7
03754441
06ABCB90
1A877740
ENDCHAR
STARTCHAR greater
ENCODING 62
SWIDTH 250 0
DWIDTH 5 0
BBX 6 8 -1 2
BITMAP
014100
00CC00
004F50
000AD1
0008F4
009F60
0AE400
AB2000
ENDCHAR
STARTCHAR question
ENCODING 63
SWIDTH 413 0
DWIDTH 7 0
BBX 10 15 -1 -1
BITMAP
0000144100
0018ECCF80
00AE4006F3
00DB0004F4
00450008F1
0000001E90
000002CB00
0016BE9000
007F720000
00CC000000
01F8000000
04B1000000
0230000000
2FF3000000
1750000000
ENDCHAR
STARTCHAR at
ENCODING 64
SWIDTH 648 0
DWIDTH 12 0
BBX 13 13 -1 -1
BITMAP
00000268730000
0002AC645B9000
003E700410A700
01E604DCCA2E00
0AB04D37FC0D40
2F41E406E60C50
5E08A002E00E40
7C0C600A802F10
5D0C929F209B00
1E45EE9D04E200
06D2005E7E5000
005D9419930000
00003200000000
ENDCHAR
STARTCHAR A
ENCODING 65
SWIDTH 552 0
DWIDTH 10 0
BBX 11 19 -2 -5
BITMAP
000000001310
00000005EEC0
0000005E34E0
000002E406C0
00000AB009A0
00003F400D70
00009D001F50
0001E8004F30
0005F3007F00
000BD111AD00
027FFFFFFE80
4BCF7436FC10
00BF1003F600
02FC0005F400
08F80007F300
0EF30008F300
7F900008F600
31000005F900
000000001000
ENDCHAR
STARTCHAR B
ENCODING 66
SWIDTH 607 0
DWIDTH 11 0
BBX 11 18 0 -4
BITMAP
000054320000
0028FEBDD500
03FFF300BF20
03AAD0007F60
000E90008F50
003F4000DE10
007F1006F600
00BB003E9000
01FBBCF90000
05FBF97E4000
09E0000AE000
0DB00006F500
2F800008F500
6F40000DF200
BF10009FA000
ED0019FB1000
DEABED600000
035420000000
ENDCHAR
STARTCHAR C
ENCODING 67
SWIDTH 548 0
DWIDTH 10 0
BBX 10 18 0 -4
BITMAP
0000003410
00004DDBE3
0006F800BB
003FA000BE
00DE1000ED
05F80007FA
0CF2000BE3
2FB0000000
7F70000000
BF40000000
DF10000000
EF00000000
FE00000000
DE00000700
8F30005900
2FC228C100
04EFFB1000
0013200000
ENDCHAR
STARTCHAR D
ENCODING 68
SWIDTH 632 0
DWIDTH 11 0
BBX 11 18 0 -4
BITMAP
000023100000
004DFFFB3000
01FA424BE400
00426000CD00
002FB0006F50
004F80002F90
007F50002FB0
009F10002FB0
00CD00005F90
01F900008F60
04F50000CF10
07F20003FA00
0BC0000AF200
1F80005F7000
5F4003EA0000
CF117FA00000
8FEFD6000000
014200000000
ENDCHAR
STARTCHAR E
ENCODING 69
SWIDTH 523 0
DWIDTH 9 0
BBX 11 18 -1 -4
BITMAP
000000033000
000019EBAD20
0002DC200C90
000DF2000D90
006F80005F60
009F5003ED00
009F50003100
003FA0000000
0006F9720000
002ADAD30000
04E800000000
1DC000000000
6F7000004200
8F600000B000
6FA000097000
1DF723AB0000
03CFFF900000
000231000000
ENDCHAR
STARTCHAR F
ENCODING 70
SWIDTH 585 0
DWIDTH 11 0
BBX 11 18 0 -4
BITMAP
000002332000
005BEEDDFC10
0AF720004F50
3FC000004F20
2EFE4000AB00
02860002F400
00000009C000
0000224F6000
01DFFFFFF900
027312F71000
000009F10000
00001FA00000
00007F500000
0000DE000000
0003FB000000
0006F9000000
0008F9000000
000220000000
ENDCHAR
STARTCHAR G
ENCODING 71
SWIDTH 612 0
DWIDTH 11 0
BBX 11 18 0 -4
BITMAP
000000142000
000018EBE500
0001CD208C00
000AE2007F00
006F7000BE00
00DE1005FB00
06F9000AF400
0CF300002000
1FE000000000
5FA003567820
8F705DCDFC10
AF400006F100
BF30000BB000
9F20003F3000
5F4000BA0000
0E9008D10000
04EACC200000
001640000000
ENDCHAR
STARTCHAR H
ENCODING 72
SWIDTH 649 0
DWIDTH 12 0
BBX 13 17 -1 -4
BITMAP
00005E30001B90
0000BE00006F60
0000FA0000AF10
0003F60000EB00
0007F20003F600
000BD00007F200
000E90000BC000
003FA79AAED800
02DFCFB7AFEA00
00AD02D47E1000
00DA003DAB0000
02F8000CF70000
06F50008F40000
09F20008F10000
0DF0000AE00000
1FD0000CC00000
04100000000000
ENDCHAR
STARTCHAR I
ENCODING 73
SWIDTH 537 0
DWIDTH 10 0
BBX 12 18 -2 -4
BITMAP
000000000200
00000004DE90
0000004F87B0
000000DD09B0
000004F80CA0
000006F41F80
000006F24F50
000004F18F20
000001E3CD00
00000042F900
000158ACFDB4
019FE96CE210
0CF6000E9000
4F90004F3000
4FA000AA0000
0BF303E20000
01BFBD400000
000241000000
ENDCHAR
STARTCHAR J
ENCODING 74
SWIDTH 500 0
DWIDTH 9 0
BBX 13 18 -2 -4
BITMAP
00000000221000
000002DFFFFE70
000001744F8320
000000005F4000
000000009F1000
00000000DC0000
00000002F90000
00000006F50000
0000000AF20000
002BB00ED00000
01DFC03FA00000
08F7007F600000
1EA000BF100000
4F2001F9000000
6F0007F2000000
5F102E70000000
0BA6D800000000
00563000000000
ENDCHAR
STARTCHAR K
ENCODING 75
SWIDTH 497 0
DWIDTH 9 0
BBX 11 19 -1 -5
BITMAP
000002000010
0000DC001E90
0004F7003F80
0009F2007F50
000DB000DD00
002F7007F500
006F203F9000
00AD03E90000
00E94E800000
03FEE8300000
09F87BF80000
09E000DC0000
0CC000EB0000
1F9003F70000
5F7009F20000
8F500DC00000
CF400FA00000
21000AE30100
0000019DC500
ENDCHAR
STARTCHAR L
ENCODING 76
SWIDTH 492 0
DWIDTH 9 0
BBX 12 18 -2 -4
BITMAP
000000000120
000000008FF6
00000006F7D8
0000000EB1E6
0000004F69D0
0000007FBE30
003324CFD300
003CFFFB1000
000002F60000
000006F20000
00000AD00000
00000E800000
00005F200000
0000BA000000
3CFEF3000000
BC7EED612820
7DB32BFFFD00
000000377200
ENDCHAR
STARTCHAR M
ENCODING 77
SWIDTH 733 0
DWIDTH 13 0
BBX 15 18 -2 -4
BITMAP
0000000000000010
0000005E80003DE0
000000DF9000BFE0
000003FC9003FCB0
000009CA900ABC80
00000D8B802F4F50
00003F4D709B4F10
00008F1E61E48D00
0000CC1F57C0BA00
0141F92F4D60F700
0964F53F8E13F400
2E07F22FE907F100
890AD01FF40AD000
B70EA00EF10DB000
C74F6006801FB000
ABBF2000002FD000
4FF90000000DF700
0230000000014100
ENDCHAR
STARTCHAR N
ENCODING 78
SWIDTH 541 0
DWIDTH 10 0
BBX 13 18 -1 -4
BITMAP
00000000002300
0006E30007FF30
000CF5002F9850
001FF6007F1B30
004FD700BC5C00
007CB803EDD200
00B89908F91000
00E58904F20000
03F27907E00000
07E07A09C00000
0AB06B0C900000
0E905C0E700000
3F604E3F300000
6F502F8F000000
9F400FEC000000
BF400CF8000000
9F6006F3000000
02000010000000
ENDCHAR
STARTCHAR O
ENCODING 79
SWIDTH 567 0
DWIDTH 10 0
BBX 10 18 0 -4
BITMAP
0000054100
0001BFEF40
000BD91AC0
006F4007F1
01EA0005F3
06F40004F4
0CD00004F4
2F800005F4
6F500007F2
8F200009F0
AF00000CC0
CE00002F70
CD00007F30
BD0000DB00
9F0006F300
4F403E7000
09EAE80000
0046200000
ENDCHAR
STARTCHAR P
ENCODING 80
SWIDTH 552 0
DWIDTH 10 0
BBX 12 18 -1 -4
BITMAP
000000243000
0003AEBAED20
009FE9002EC0
00D5D60009F2
0012F30008F3
0006E0000BF1
0009B0001EB0
000D70009F30
002F4008F600
006F13BE5000
00AFDC710000
00EB00000000
03F800000000
07F400000000
0BF100000000
2FB000000000
9F4000000000
010000000000
ENDCHAR
STARTCHAR Q
ENCODING 81
SWIDTH 583 0
DWIDTH 11 0
BBX 10 18 0 -4
BITMAP
0000013200
00019FCE70
000BE404F3
008F4000D8
02FA0000AB
09F30000AC
0EC00000CC
4F800000EA
7F500002F7
8F300007F3
7F40000CD0
2F90004F80
05E700BE10
003535F600
0AFBDFB000
3F53DED300
2EEFA16E83
0142000142
ENDCHAR
STARTCHAR R
ENCODING 82
SWIDTH 560 0
DWIDTH 10 0
BBX 12 19 -1 -5
BITMAP
000000244100
0003AEBAEE30
007FEB001DD0
00C7B80007F4
0010E50006F5
0003F10008F3
0007D0000DD0
000BA0007F50
001E8006F800
02EFDBAE7000
01DFDEE20000
00BE02F30000
00EB00D70000
03F800BA0000
08F400BC0000
0DE100AE0000
5F80008F4100
0100003FF900
000000034000
ENDCHAR
STARTCHAR S
ENCODING 83
SWIDTH 474 0
DWIDTH 9 0
BBX 10 18 -1 -4
BITMAP
0000024510
00009FBAF4
000BE400BC
005F5000AD
00AF0000EB
009F2005E4
005F900000
000CF60000
0002EF4000
00004FD000
000009F300
000003F600
043000F500
9F2001F300
CF2006D000
8F702E6000
1DFCE80000
0156200000
ENDCHAR
STARTCHAR T
ENCODING 84
SWIDTH 423 0
DWIDTH 8 0
BBX 10 18 0 -4
BITMAP
0000010000
2BDEFFFFD8
6DA7CF4442
0000DC0000
0001F80000
0005F40000
0008F00000
000CB00000
001F700000
004F400000
008F100000
00BC000000
00EA000000
03F7000000
07F4000000
0AF2000000
0EE0000000
0310000000
ENDCHAR
STARTCHAR U
ENCODING 85
SWIDTH 574 0
DWIDTH 10 0
BBX 11 17 0 -4
BITMAP
0009D1001DD0
005FA0006F80
00AF5000AF30
00EE0000EE00
03F90003F900
07F50006F500
0BF1000AF100
0EB0000DB000
2F70002F7000
5F30005F4000
8F00009F1000
AD0000EE0000
CC0006FC0000
CD001DFB0000
AF41ABAC0000
3EFFA17E1000
013200010000
ENDCHAR
STARTCHAR V
ENCODING 86
SWIDTH 503 0
DWIDTH 9 0
BBX 11 17 0 -4
BITMAP
00CE1000AC10
03FA0002FC10
06F40008F300
09E0000DC000
0CB0004F7000
0E80009F2000
1F6000EB0000
2F5003F60000
3F4008F10000
2F400DB00000
1F402F600000
0F507E000000
0D60C8000000
0A92F2000000
06DB90000000
01EE20000000
003300000000
ENDCHAR
STARTCHAR W
ENCODING 87
SWIDTH 817 0
DWIDTH 15 0
BBX 15 18 0 -4
BITMAP
0000000000000410
001CD10020009F60
006F5005F2007F60
00CD000DF1006F50
02F8002FD0007F30
06F3004F90007F10
0BD0006F50009E00
0E90006F1000CB00
3F50008D0000F700
5F2000DB0004F300
7E0004F90008E000
8D0009F8000D8000
8C001ED8004F3000
7C007D8900AB0000
6E01E57B02F40000
2F7BB05F4C900000
0BFD201EFC100000
0151000250000000
ENDCHAR
STARTCHAR X
ENCODING 88
SWIDTH 579 0
DWIDTH 10 0
BBX 14 18 -1 -4
BITMAP
00043000000110
008CF700004ED1
02E09D0002ED30
05D04F200CE200
04F85F508F4000
00BFDE73F80000
00041B9CC00000
000009FF300000
000008F7000000
00000CE0000000
00008FF0000000
0003FBF1000000
000CD2F3000000
007F40E6000000
03F900BA000200
1DE1007F208500
8E50001DEE6000
00000001410000
ENDCHAR
STARTCHAR Y
ENCODING 89
SWIDTH 532 0
DWIDTH 10 0
BBX 11 18 0 -4
BITMAP
000110000200
006F7000AF20
00CF1000ED00
01FB0003F800
05F60006F400
09F10009E000
0CC0000DB000
1F80003F7000
3F50009F3000
5F2003FE0000
6F301CBB0000
2FD9D7A70000
049831F30000
000007D00000
14002E600000
AF86DB000000
9FFF91000000
024200000000
ENDCHAR
STARTCHAR Z
ENCODING 90
SWIDTH 455 0
DWIDTH 8 0
BBX 11 18 -2 -4
BITMAP
000000111000
0003DFFFFFB0
0008D9755DD0
000100002FA0
00000000AF30
00000005F900
0000002EC100
000001CE2000
00000AF40000
00007F600000
0004F9000000
002EB0000000
00BD10000000
05F400000000
0D9000000000
5FACEFFE7000
4FDBBCEE2000
010000000000
ENDCHAR
STARTCHAR bracketleft
ENCODING 91
SWIDTH 202 0
DWIDTH 4 0
BBX 7 17 -1 -2
BITMAP
0000BE50
0004F710
0009A000
000D5000
002F1000
007C0000
00A80000
00E50000
03F10000
06C00000
0A800000
0D500000
1F100000
5D000000
8B000000
BB100000
BFA00000
ENDCHAR
STARTCHAR backslash
ENCODING 92
SWIDTH 273 0
DWIDTH 5 0
BBX 5 15 0 -1
BITMAP
020000
3F2000
2F4000
0F5000
0D7000
0A9000
08B000
06D000
04F000
01F300
00E600
00C900
00AD00
007F10
001300
ENDCHAR
STARTCHAR bracketright
ENCODING 93
SWIDTH 216 0
DWIDTH 4 0
BBX 7 17 -2 -2
BITMAP
0001DD50
00004F50
00001F20
00004E00
00007B00
0000A800
0000D500
0002F100
0006D000
000A9000
000D5000
002F1000
006C0000
00B80000
01E40000
29E00000
AF800000
ENDCHAR
STARTCHAR asciicircum
ENCODING 94
SWIDTH 287 0
DWIDTH 5 0
BBX 7 7 -1 6
BITMAP
0001DF00
0009CF20
003F3F30
00C80E50
06E10D70
1E600C90
25000540
ENDCHAR
STARTCHAR underscore
ENCODING 95
SWIDTH 439 0
DWIDTH 8 0
BBX 10 3 -2 -1
BITMAP
1345554310
DFFFFFFFF1
2211001220
ENDCHAR
STARTCHAR grave
ENCODING 96
SWIDTH 567 0
DWIDTH 10 0
BBX 4 3 4 10
BITMAP
0300
4FA1
02A9
ENDCHAR
STARTCHAR a
ENCODING 97
SWIDTH 435 0
DWIDTH 8 0
BBX 11 9 -1 -1
BITMAP
000044000000
001BDF200000
00BA2C800000
06E10B800110
0D900E500A10
2F604F209400
3F75CF077000
1EFC2DD90000
022001300000
ENDCHAR
STARTCHAR b
ENCODING 98
SWIDTH 415 0
DWIDTH 7 0
BBX 10 14 0 -1
BITMAP
0019400000
008F500000
00EF200000
05FD000000
0AF8000000
0EF3000000
3FD0530000
6F63FB47A2
9E10BE8500
A800B90000
B602F30000
980B900000
4EDA000000
0230000000
ENDCHAR
STARTCHAR c
ENCODING 99
SWIDTH 363 0
DWIDTH 7 0
BBX 9 9 -1 -1
BITMAP
0002630000
005F9E0000
03F58E0000
0BA0650030
1F50000390
2F30002B10
0E7004C200
07FABB1000
0046300000
ENDCHAR
STARTCHAR d
ENCODING 100
SWIDTH 483 0
DWIDTH 9 0
BBX 12 14 -1 -1
BITMAP
000000017200
00000005F700
0000000AF600
0000000EF400
0000003FE100
0000207FA000
003CAAAF4000
01E60BEC0000
08B007F40021
0E5006B001A0
2F201D701B20
2F43CE61B300
0BFC3ADC3000
002001510000
ENDCHAR
STARTCHAR e
ENCODING 101
SWIDTH 372 0
DWIDTH 7 0
BBX 9 9 -1 -1
BITMAP
0000430000
002CCF2000
01D64E0000
08D2C50010
0ECC4001A0
1FB1001B20
0EA004C200
06FCCA2000
0036300000
ENDCHAR
STARTCHAR f
ENCODING 102
SWIDTH 325 0
DWIDTH 6 0
BBX 10 22 -2 -9
BITMAP
0000373000
00008F6000
00007F4000
00008F1000
0000BB0000
0000E60000
0003F20000
0007C01343
000CDCB852
00BF610000
00EC000000
00BF700000
00E7E50000
04E06E0000
07B01F4000
0B800E5000
0F502F3000
4F109D0000
7D04F60000
AD6EA00000
9FFA000000
1640000000
ENDCHAR
STARTCHAR g
ENCODING 103
SWIDTH 459 0
DWIDTH 8 0
BBX 11 17 -1 -9
BITMAP
000130000000
003ECA590000
01E50CD70000
07C009F40010
0C7004F00650
0E600AC07900
0D907F999000
08FF7EE60000
00329F300000
001BDD000000
01C8AA000000
0CA0E7000000
2F22F3000000
4F06E0000000
2F2BA0000000
0BEF40000000
02B800000000
ENDCHAR
STARTCHAR h
ENCODING 104
SWIDTH 465 0
DWIDTH 8 0
BBX 11 14 -1 -1
BITMAP
000250000000
000BF1000000
000CD0000000
000F90000000
003F40000000
007E10000000
00BB5DE20000
00EBA7F50000
03FA04F30000
06E108D00460
0AB00D803A00
0D801F56A100
1F401EF80000
041003200000
ENDCHAR
STARTCHAR i
ENCODING 105
SWIDTH 274 0
DWIDTH 5 0
BBX 7 13 0 -1
BITMAP
00160000
00AD0000
00430000
00000000
00000000
08C00000
1F900000
5F400120
7E001B10
9A00B400
981B6000
4EE50000
01100000
ENDCHAR
STARTCHAR j
ENCODING 106
SWIDTH 267 0
DWIDTH 5 0
BBX 11 20 -4 -8
BITMAP
0000001A1000
0000007E1000
000000220000
000000000000
000000000000
000007B00000
00000DB00000
00002F700120
00006F201B10
0000AD02B200
0000D93C2000
0001FCB10000
0005F7000000
006FE0000000
05ECB0000000
1E4D70000000
8B2F30000000
B76D00000000
97C800000000
1CC100000000
ENDCHAR
STARTCHAR k
ENCODING 107
SWIDTH 440 0
DWIDTH 8 0
BBX 11 14 -1 -1
BITMAP
000470000000
000DE0000000
000EB0000000
001F70000000
004F20000000
008C00100000
00B76EE10000
00E997F10000
03F809700000
07B8EB000A10
0B657F008500
0E206C079000
4E008ED90000
130018400000
ENDCHAR
STARTCHAR l
ENCODING 108
SWIDTH 218 0
DWIDTH 4 0
BBX 5 14 -1 -1
BITMAP
000240
000CF0
000DC0
001F80
005F40
008F10
00CB00
01F700
04F400
07E000
0BB000
0E7000
3F3000
040000
ENDCHAR
STARTCHAR m
ENCODING 109
SWIDTH 717 0
DWIDTH 13 0
BBX 15 8 0 -1
BITMAP
05619D319D300000
0DBB9F8CBF800000
1FF30FF41F700120
5F802F805F400A10
8F206F108F108600
CC00AA00BC079000
F800E700BFC80000
4000300026300000
ENDCHAR
STARTCHAR n
ENCODING 110
SWIDTH 461 0
DWIDTH 8 0
BBX 11 8 -1 -1
BITMAP
00785DC00000
00ECB9F30000
03FB05F20030
07E108E00660
0AB00CA03A00
0E701F63C100
3F301FDC2000
120003510000
ENDCHAR
STARTCHAR o
ENCODING 111
SWIDTH 393 0
DWIDTH 7 0
BBX 10 9 -1 -1
BITMAP
0001100000
007FE70000
03F61E3017
0AF40C65B2
0FBC7EE810
1F27BF2000
0E30BA0000
09DCC10000
0044000000
ENDCHAR
STARTCHAR p
ENCODING 112
SWIDTH 451 0
DWIDTH 8 0
BBX 12 15 -2 -8
BITMAP
000B94CC1000
000DEB6F4000
001FB00E5001
005E203F2083
008B00BB0680
00CEC9F37A00
01FDFFED8000
04F273420000
08C000000000
0C9000000000
1F6000000000
5F3000000000
9F0000000000
CC0000000000
550000000000
ENDCHAR
STARTCHAR q
ENCODING 113
SWIDTH 462 0
DWIDTH 8 0
BBX 10 16 -1 -9
BITMAP
001ACA6C00
01D90BDA00
07E106F600
0EA004F200
1F8009D005
0F702F9057
0AD7BE54A0
01773F5B10
00006FC200
0000AD2000
0001E60000
0008F40000
000CF30000
000CF30000
0004F30000
0000100000
ENDCHAR
STARTCHAR r
ENCODING 114
SWIDTH 406 0
DWIDTH 7 0
BBX 11 10 -2 -1
BITMAP
000040000000
0007F6000000
000EF5100000
000CFFE20000
003E12F50020
00B607E10560
03C01E603B00
0B307D03C100
39007EAC2000
100007710000
ENDCHAR
STARTCHAR s
ENCODING 115
SWIDTH 351 0
DWIDTH 6 0
BBX 5 9 0 -1
BITMAP
008D10
05FB00
07F900
1C6E10
931E70
110AD0
5E16C0
5FBC30
058200
ENDCHAR
STARTCHAR t
ENCODING 116
SWIDTH 301 0
DWIDTH 5 0
BBX 10 14 -2 -1
BITMAP
0000062000
00005F5000
0000AF4000
2BBCFFFFC5
0358FB0131
0007F70000
000AF20000
000DB00000
001F500040
003D000470
0069003B00
006A03C200
002EDD2000
0002510000
ENDCHAR
STARTCHAR u
ENCODING 117
SWIDTH 468 0
DWIDTH 8 0
BBX 10 8 0 -1
BITMAP
07700A5000
4F505F5000
9E00AF2004
CA00CD0047
E700D602B0
E806F72C20
8FDC7FD200
0230030000
ENDCHAR
STARTCHAR v
ENCODING 118
SWIDTH 427 0
DWIDTH 8 0
BBX 10 8 0 -1
BITMAP
4C101CA000
AE007F7001
CB00BE1293
C900DDC920
B907A00000
9D5D100000
3FE2000000
0420000000
ENDCHAR
STARTCHAR w
ENCODING 119
SWIDTH 646 0
DWIDTH 12 0
BBX 14 9 0 -1
BITMAP
00000200000000
1B704F405E1000
5F409F10EE0001
8E00CA00FA0292
BB00C401FFC910
C801E006D00000
C709C41D600000
7EC64DC9000000
05300230000000
ENDCHAR
STARTCHAR x
ENCODING 120
SWIDTH 399 0
DWIDTH 7 0
BBX 9 9 -1 -1
BITMAP
0040002000
04F406F600
00D94F8000
007EE90000
003FA00000
01CF700180
0BB8D04C10
9C12FEC200
4100340000
ENDCHAR
STARTCHAR y
ENCODING 121
SWIDTH 406 0
DWIDTH 7 0
BBX 8 15 -1 -8
BITMAP
04C402D6
06F303F6
0AE006F1
0E900CB0
3F406F70
4F33EF30
1EEE9F00
02638C00
0000C800
0001F500
0005F200
0008E000
000CB000
001F8000
00072000
ENDCHAR
STARTCHAR z
ENCODING 122
SWIDTH 448 0
DWIDTH 8 0
BBX 11 16 -1 -8
BITMAP
000001210000
001BFFFD0000
002A51A80000
000003E20000
00001C800210
0000AC301A10
000AFBE5B200
000762DB1000
00019DF10000
004D67C00000
03E40D700000
0C705F200000
5E00CA000000
8B06F2000000
7E9F70000000
1AC600000000
ENDCHAR
STARTCHAR braceleft
ENCODING 123
SWIDTH 243 0
DWIDTH 4 0
BBX 7 17 -1 -2
BITMAP
00003AB0
0003EE60
0009D100
000B8000
000A8000
000A8000
000D6000
029D1000
06E10000
00B60000
00B60000
02E20000
0A900000
2F100000
5F300000
3FE30000
06E20000
ENDCHAR
STARTCHAR bar
ENCODING 124
SWIDTH 253 0
DWIDTH 5 0
BBX 5 15 0 -1
BITMAP
000120
001E60
004F20
008C00
00B800
00E400
03F000
07C000
0B8000
0E5000
3F2000
6F0000
AC0000
DA0000
410000
ENDCHAR
STARTCHAR braceright
ENCODING 125
SWIDTH 243 0
DWIDTH 4 0
BBX 7 18 -2 -3
BITMAP
0000B600
0001FF40
00003F80
00000D50
00004E10
0000C600
0002E000
0004D000
0000D700
0008D500
002F2000
005D0000
005D0000
005E0000
009C0000
3CF60000
9E700000
10000000
ENDCHAR
STARTCHAR asciitilde
ENCODING 126
SWIDTH 329 0
DWIDTH 6 0
BBX 8 3 -1 5
BITMAP
01430031
5FFFDBE2
25015730
ENDCHAR
STARTCHAR uni00A0
ENCODING 160
SWIDTH 280 0
DWIDTH 5 0
BBX 1 1 0 0
BITMAP
00
ENDCHAR
STARTCHAR exclamdown
ENCODING 161
SWIDTH 249 0
DWIDTH 4 0
BBX 6 15 -1 -1
BITMAP
000021
0005FB
000371
000150
000AA0
000E70
004F40
008F10
00CC00
01F800
05F500
09F200
0DD000
2FA000
261000
ENDCHAR
STARTCHAR cent
ENCODING 162
SWIDTH 322 0
DWIDTH 6 0
BBX 7 14 -1 -1
BITMAP
00000C10
00003E10
0008C7B0
007C17E0
02F32FD0
09B00B40
0D600000
1F300000
1F200000
0D401700
07D8B100
00A91000
00C20000
00100000
ENDCHAR
STARTCHAR sterling
ENCODING 163
SWIDTH 318 0
DWIDTH 6 0
BBX 8 12 -1 1
BITMAP
00001310
0003D9D1
000D40B5
004C17E2
00891950
00B60000
18F87100
08E97000
09900000
0E300000
6B466300
CDCAA600
ENDCHAR
STARTCHAR currency
ENCODING 164
SWIDTH 347 0
DWIDTH 6 0
BBX 8 7 -1 3
BITMAP
00700032
00C9B9D3
004C3D30
00940D00
01D79A00
1C997E30
05000530
ENDCHAR
STARTCHAR yen
ENCODING 165
SWIDTH 326 0
DWIDTH 6 0
BBX 7 11 0 1
BITMAP
085002A0
0B700A80
08903D10
05C1D400
01EB7000
00BA0000
39EC7000
26F62000
ADEC2000
0A800000
0C300000
ENDCHAR
STARTCHAR brokenbar
ENCODING 166
SWIDTH 253 0
DWIDTH 5 0
BBX 5 15 0 -1
BITMAP
000120
001E60
004F20
008D00
00B900
00E500
019100
000000
086000
0E5000
3F2000
6F0000
AC0000
DA0000
410000
ENDCHAR
STARTCHAR section
ENCODING 167
SWIDTH 297 0
DWIDTH 5 0
BBX 8 15 -1 -1
BITMAP
00002410
000993D1
007C01F3
00A905A0
003D2000
0008D200
03D87B00
0B803F00
0C708B00
03DB8100
002D4000
1823E100
7B03F100
4C2B8000
02630000
ENDCHAR
STARTCHAR dieresis
ENCODING 168
SWIDTH 567 0
DWIDTH 10 0
BBX 6 2 3 10
BITMAP
0A82B5
193382
ENDCHAR
STARTCHAR copyright
ENCODING 169
SWIDTH 456 0
DWIDTH 8 0
BBX 9 10 0 4
BITMAP
0000010000
002BB9B400
03D4252D20
0C44D97690
5C0D3763B0
984B0004C0
9769031890
6A2D962D20
0C5122C500
019CBA3000
ENDCHAR
STARTCHAR ordfeminine
ENCODING 170
SWIDTH 373 0
DWIDTH 7 0
BBX 9 10 -1 -1
BITMAP
0004930000
007CC90000
04E13E0000
0B705B0000
2F30A80230
3F48D62A10
1EE75DA100
0110110000
AEFFFF2000
7533220000
ENDCHAR
STARTCHAR guillemotleft
ENCODING 171
SWIDTH 346 0
DWIDTH 6 0
BBX 7 8 -1 -1
BITMAP
001B35A0
01C64D20
0BA3E400
8E1D9000
4F29B000
0991E200
01D17800
00210300
ENDCHAR
STARTCHAR logicalnot
ENCODING 172
SWIDTH 512 0
DWIDTH 9 0
BBX 9 5 0 3
BITMAP
0123332100
CFFFFFFFC0
53110008A0
0000000C60
0000002D10
ENDCHAR
STARTCHAR sfthyphen
ENCODING 173
SWIDTH 353 0
DWIDTH 6 0
BBX 7 3 -1 4
BITMAP
02344430
2FFEEED0
13000000
ENDCHAR
STARTCHAR registered
ENCODING 174
SWIDTH 456 0
DWIDTH 8 0
BBX 9 10 0 4
BITMAP
0000010000
002BB9B400
03D5672D20
0C4AA78690
5C066863B0
980CC904C0
970D760890
6A4A1D4D20
0C5005D500
019CBA3000
ENDCHAR
STARTCHAR macron
ENCODING 175
SWIDTH 567 0
DWIDTH 10 0
BBX 5 2 4 10
BITMAP
8BBB30
776610
ENDCHAR
STARTCHAR degree
ENCODING 176
SWIDTH 144 0
DWIDTH 3 0
BBX 3 3 1 9
BITMAP
9B50
BB40
0100
ENDCHAR
STARTCHAR twosuperior
ENCODING 178
SWIDTH 268 0
DWIDTH 5 0
BBX 6 10 0 4
BITMAP
000340
01C7E5
08B0D7
0352F3
000A80
007B00
09C100
7D6610
9ECD70
000010
ENDCHAR
STARTCHAR threesuperior
ENCODING 179
SWIDTH 262 0
DWIDTH 5 0
BBX 6 10 0 4
BITMAP
001420
04E9E3
0A90C6
0464E1
006E40
009B90
0005B0
8B0B70
4EEA00
001000
ENDCHAR
STARTCHAR acute
ENCODING 180
SWIDTH 567 0
DWIDTH 10 0
BBX 4 4 4 9
BITMAP
0002
02CA
3E91
0100
ENDCHAR
STARTCHAR mu
ENCODING 181
SWIDTH 453 0
DWIDTH 8 0
BBX 12 11 -3 -4
BITMAP
000060043000
0009C01E7000
000E705F5000
004F208F1011
008E00990090
00BE13EA0750
00FEFD4ED800
04F210011000
08D000000000
0D8000000000
160000000000
ENDCHAR
STARTCHAR paragraph
ENCODING 182
SWIDTH 411 0
DWIDTH 7 0
BBX 9 15 0 -1
BITMAP
0000021100
00157F8E70
04EFFEEE60
2FFFF97800
6FFFF5B500
6FFFF2E200
1DFFD2D000
017D95A000
000B687000
000E2B4000
003E0E1000
007A3C0000
00B7780000
01F3C30000
0231200000
ENDCHAR
STARTCHAR periodcentered
ENCODING 183
SWIDTH 168 0
DWIDTH 3 0
BBX 3 2 0 5
BITMAP
6D70
9B20
ENDCHAR
STARTCHAR cedilla
ENCODING 184
SWIDTH 567 0
DWIDTH 10 0
BBX 4 5 4 -3
BITMAP
0650
1E71
15CA
05C5
2510
ENDCHAR
STARTCHAR onesuperior
ENCODING 185
SWIDTH 150 0
DWIDTH 3 0
BBX 4 9 0 5
BITMAP
0020
04E5
03F2
04D0
0790
0A60
0E20
3E00
6D00
ENDCHAR
STARTCHAR ordmasculine
ENCODING 186
SWIDTH 319 0
DWIDTH 6 0
BBX 8 10 -1 -1
BITMAP
00163000
01E9C400
09D06A28
0EE57E90
2F3BE900
1F13E200
0ACD5000
00310000
BFFFF200
64322000
ENDCHAR
STARTCHAR guillemotright
ENCODING 187
SWIDTH 346 0
DWIDTH 6 0
BBX 8 8 -2 -1
BITMAP
00C25900
007A0D40
001E47C0
000BB2F5
004E39B0
01D46C10
0B53D200
12021000
ENDCHAR
STARTCHAR onequarter
ENCODING 188
SWIDTH 579 0
DWIDTH 10 0
BBX 11 15 -1 -1
BITMAP
000210000030
003E60001C80
002F30009B00
003E0004E200
006A001E5000
009600A90000
00D305D12D90
03F02E31CD60
05E0B80B8C20
0006D19A1E00
002E41FEEF50
00C900219A10
07E10000D700
3F600001F500
230000003000
ENDCHAR
STARTCHAR onehalf
ENCODING 189
SWIDTH 603 0
DWIDTH 11 0
BBX 12 15 -1 -1
BITMAP
000110000030
002E70000B90
001E40008D10
001F1003E300
005C001D6000
0088009A0110
00C404E19AE3
01F11D47B0D6
03F1A90571F3
0005E10008A0
001E50005D10
00AB0006D200
06F2006D4200
2E8000BFFF60
230000220220
ENDCHAR
STARTCHAR threequarters
ENCODING 190
SWIDTH 669 0
DWIDTH 12 0
BBX 12 15 0 -1
BITMAP
001420000012
04E9E30004E3
0A90C6001E60
0464E100AA00
006E4005D100
009B902E4000
0005B0B806E4
8B0B76C04DF1
4EEA2E32E6C0
0010B82D5790
0007D07FEFE0
003F40020E60
00C900003F10
08E100006F00
031000001300
ENDCHAR
STARTCHAR questiondown
ENCODING 191
SWIDTH 413 0
DWIDTH 7 0
BBX 9 15 -1 -1
BITMAP
0000000410
000000BF90
0000004610
0000004700
000001F800
000005F400
00002AF000
002AFB5000
03E9100000
1E90000000
8E10013000
CB0004F400
DB0009F300
5FB9CE5000
0277510000
ENDCHAR
STARTCHAR Agrave
ENCODING 192
SWIDTH 552 0
DWIDTH 10 0
BBX 12 23 -2 -5
BITMAP
000000002100
00000000CE40
0000000006D1
000000000000
000000001310
00000005EEC0
0000005E34E0
000002E406C0
00000AB009A0
00003F400D70
00009D001F50
0001E8004F30
0005F3007F00
000BD111AD00
027FFFFFFE80
4BCF7436FC10
00BF1003F600
02FC0005F400
08F80007F300
0EF30008F300
7F900008F600
31000005F900
000000001000
ENDCHAR
STARTCHAR Aacute
ENCODING 193
SWIDTH 552 0
DWIDTH 10 0
BBX 12 22 -2 -5
BITMAP
000000000020
0000000008F1
00000000BC40
000000001310
00000005EEC0
0000005E34E0
000002E406C0
00000AB009A0
00003F400D70
00009D001F50
0001E8004F30
0005F3007F00
000BD111AD00
027FFFFFFE80
4BCF7436FC10
00BF1003F600
02FC0005F400
08F80007F300
0EF30008F300
7F900008F600
31000005F900
000000001000
ENDCHAR
STARTCHAR Acircumflex
ENCODING 194
SWIDTH 552 0
DWIDTH 10 0
BBX 12 22 -2 -5
BITMAP
000000000340
000000006CE4
000000059169
000000001310
00000005EEC0
0000005E34E0
000002E406C0
00000AB009A0
00003F400D70
00009D001F50
0001E8004F30
0005F3007F00
000BD111AD00
027FFFFFFE80
4BCF7436FC10
00BF1003F600
02FC0005F400
08F80007F300
0EF30008F300
7F900008F600
31000005F900
000000001000
ENDCHAR
STARTCHAR Atilde
ENCODING 195
SWIDTH 552 0
DWIDTH 10 0
BBX 13 21 -2 -5
BITMAP
00000006CB8780
00000007448820
00000000131000
00000005EEC000
0000005E34E000
000002E406C000
00000AB009A000
00003F400D7000
00009D001F5000
0001E8004F3000
0005F3007F0000
000BD111AD0000
027FFFFFFE8000
4BCF7436FC1000
00BF1003F60000
02FC0005F40000
08F80007F30000
0EF30008F30000
7F900008F60000
31000005F90000
00000000100000
ENDCHAR
STARTCHAR Adieresis
ENCODING 196
SWIDTH 552 0
DWIDTH 10 0
BBX 13 21 -2 -5
BITMAP
00000001A82B50
00000001933820
00000000131000
00000005EEC000
0000005E34E000
000002E406C000
00000AB009A000
00003F400D7000
00009D001F5000
0001E8004F3000
0005F3007F0000
000BD111AD0000
027FFFFFFE8000
4BCF7436FC1000
00BF1003F60000
02FC0005F40000
08F80007F30000
0EF30008F30000
7F900008F60000
31000005F90000
00000000100000
ENDCHAR
STARTCHAR Aring
ENCODING 197
SWIDTH 552 0
DWIDTH 10 0
BBX 11 21 -2 -5
BITMAP
000000000210
000000004AC0
000000005C80
00000005EEC0
0000005E34E0
000002E406C0
00000AB009A0
00003F400D70
00009D001F50
0001E8004F30
0005F3007F00
000BD111AD00
027FFFFFFE80
4BCF7436FC10
00BF1003F600
02FC0005F400
08F80007F300
0EF30008F300
7F900008F600
31000005F900
000000001000
ENDCHAR
STARTCHAR AE
ENCODING 198
SWIDTH 869 0
DWIDTH 16 0
BBX 18 19 -2 -5
BITMAP
000000001310002310
00000005EEC07DCAD4
0000005E34FBE4009C
000002E406FF5000AC
00000AB009FC0002E9
00003F400DF9001DE2
00009D001FF9000220
0001E8004FED100000
0005F3007F4DB74000
000BD111AD9DAD5000
027FFFFFFFB1000000
4BCF7436FE10000000
00BF1003FA00000140
02FC0005F900000920
08F80007FD00006A00
0EF30008FFA228D100
7F900008FEFFFB1000
31000005F824200000
000000001000000000
ENDCHAR
STARTCHAR Ccedilla
ENCODING 199
SWIDTH 548 0
DWIDTH 10 0
BBX 10 21 0 -7
BITMAP
0000003410
00004DDBE3
0006F800BB
003FA000BE
00DE1000ED
05F80007FA
0CF2000BE3
2FB0000000
7F70000000
BF40000000
DF10000000
EF00000000
EE00000000
DE00000700
8F30005900
2EC228C100
04EFFB2000
004D200000
008DA10000
0002F30000
007B500000
ENDCHAR
STARTCHAR Egrave
ENCODING 200
SWIDTH 523 0
DWIDTH 9 0
BBX 11 21 -1 -4
BITMAP
000000130000
0000005F9000
00000003B800
000000033100
000019EBAD20
0002DC200C90
000DF2000D90
006F80005F60
009F5003ED00
009F50003100
003FA0000000
0006F9720000
002ADAD30000
04E800000000
1DC000000000
6F7000004200
8F600000B000
6FA000097000
1DF723AB0000
03CFFF900000
000231000000
ENDCHAR
STARTCHAR Eacute
ENCODING 201
SWIDTH 523 0
DWIDTH 9 0
BBX 11 21 -1 -4
BITMAP
000000000200
00000001AE00
0000001DB300
000000033000
000019EBAD20
0002DC200C90
000DF2000D90
006F80005F60
009F5003ED00
009F50003100
003FA0000000
0006F9720000
002ADAD30000
04E800000000
1DC000000000
6F7000004200
8F600000B000
6FA000097000
1DF723AB0000
03CFFF900000
000231000000
ENDCHAR
STARTCHAR Ecircumflex
ENCODING 202
SWIDTH 523 0
DWIDTH 9 0
BBX 11 21 -1 -4
BITMAP
000000003400
00000008CF20
000000680870
000000033000
000019EBAD20
0002DC200C90
000DF2000D90
006F80005F60
009F5003ED00
009F50003100
003FA0000000
0006F9720000
002ADAD30000
04E800000000
1DC000000000
6F7000004200
8F600000B000
6FA000097000
1DF723AB0000
03CFFF900000
000231000000
ENDCHAR
STARTCHAR Edieresis
ENCODING 203
SWIDTH 523 0
DWIDTH 9 0
BBX 11 20 -1 -4
BITMAP
0000005C18A0
000000670750
000000033000
000019EBAD20
0002DC200C90
000DF2000D90
006F80005F60
009F5003ED00
009F50003100
003FA0000000
0006F9720000
002ADAD30000
04E800000000
1DC000000000
6F7000004200
8F600000B000
6FA000097000
1DF723AB0000
03CFFF900000
000231000000
ENDCHAR
STARTCHAR Igrave
ENCODING 204
SWIDTH 537 0
DWIDTH 10 0
BBX 12 21 -2 -4
BITMAP
000000003000
00000001EC20
0000000018D0
000000000210
00000004DE90
0000004F87B0
000000DD09B0
000004F80CA0
000006F41F80
000006F24F50
000004F18F20
000001E3CD00
00000042F900
000158ACFDB4
019FE96CE210
0CF6000E9000
4F90004F3000
4FA000AA0000
0BF303E20000
01BFBD400000
000241000000
ENDCHAR
STARTCHAR Iacute
ENCODING 205
SWIDTH 537 0
DWIDTH 10 0
BBX 12 21 -2 -4
BITMAP
000000000011
0000000004E7
000000006E70
000000001300
00000004DE90
0000004F87B0
000000DD09B0
000004F80CA0
000006F41F80
000006F24F50
000004F18F20
000001E3CD00
00000042F900
000158ACFDB4
019FE96CE210
0CF6000E9000
4F90004F3000
4FA000AA0000
0BF303E20000
01BFBD400000
000241000000
ENDCHAR
STARTCHAR Icircumflex
ENCODING 206
SWIDTH 537 0
DWIDTH 10 0
BBX 13 21 -2 -4
BITMAP
00000000005200
000000001BCC00
00000001951A40
00000000020000
00000004DE9000
0000004F87B000
000000DD09B000
000004F80CA000
000006F41F8000
000006F24F5000
000004F18F2000
000001E3CD0000
00000042F90000
000158ACFDB400
019FE96CE21000
0CF6000E900000
4F90004F300000
4FA000AA000000
0BF303E2000000
01BFBD40000000
00024100000000
ENDCHAR
STARTCHAR Idieresis
ENCODING 207
SWIDTH 537 0
DWIDTH 10 0
BBX 13 20 -2 -4
BITMAP
00000001A82B50
00000001933820
00000000020000
00000004DE9000
0000004F87B000
000000DD09B000
000004F80CA000
000006F41F8000
000006F24F5000
000004F18F2000
000001E3CD0000
00000042F90000
000158ACFDB400
019FE96CE21000
0CF6000E900000
4F90004F300000
4FA000AA000000
0BF303E2000000
01BFBD40000000
00024100000000
ENDCHAR
STARTCHAR Eth
ENCODING 208
SWIDTH 632 0
DWIDTH 11 0
BBX 12 18 -1 -4
BITMAP
000002310000
0004DFFFB300
001FA424BE40
000426000CD0
0002FB0006F5
0004F80002F9
0007F50002FB
0009F10002FB
19AEFB9005F9
5A9FC75008F6
004F60000CF1
007F20003FA0
00BC0000AF20
01F80005F700
05F4003EA000
0CF117FA0000
08FEFD600000
001420000000
ENDCHAR
STARTCHAR Ntilde
ENCODING 209
SWIDTH 541 0
DWIDTH 10 0
BBX 13 20 -1 -4
BITMAP
000007CB777000
00000744881000
00000000002300
0006E30007FF30
000CF5002F9850
001FF6007F1B30
004FD700BC5C00
007CB803EDD200
00B89908F91000
00E58904F20000
03F27907E00000
07E07A09C00000
0AB06B0C900000
0E905C0E700000
3F604E3F300000
6F502F8F000000
9F400FEC000000
BF400CF8000000
9F6006F3000000
02000010000000
ENDCHAR
STARTCHAR Ograve
ENCODING 210
SWIDTH 567 0
DWIDTH 10 0
BBX 10 21 0 -4
BITMAP
0000013000
000005F900
0000003B80
0000054100
0001BFEF40
000BD91AC0
006F4007F1
01EA0005F3
06F40004F4
0CD00004F4
2F800005F4
6F500007F2
8F200009F0
AF00000CC0
CE00002F70
CD00007F30
BD0000DB00
9F0006F300
4F403E7000
09EAE80000
0046200000
ENDCHAR
STARTCHAR Oacute
ENCODING 211
SWIDTH 567 0
DWIDTH 10 0
BBX 10 21 0 -4
BITMAP
0000000110
0000003D80
000005E810
0000054100
0001BFEF40
000BD91AC0
006F4007F1
01EA0005F3
06F40004F4
0CD00004F4
2F800005F4
6F500007F2
8F200009F0
AF00000CC0
CE00002F70
CD00007F30
BD0000DB00
9F0006F300
4F403E7000
09EAE80000
0046200000
ENDCHAR
STARTCHAR Ocircumflex
ENCODING 212
SWIDTH 567 0
DWIDTH 10 0
BBX 10 21 0 -4
BITMAP
0000001510
000003DD80
00002933A2
0000054100
0001BFEF40
000BD91AC0
006F4007F1
01EA0005F3
06F40004F4
0CD00004F4
2F800005F4
6F500007F2
8F200009F0
AF00000CC0
CE00002F70
CD00007F30
BD0000DB00
9F0006F300
4F403E7000
09EAE80000
0046200000
ENDCHAR
STARTCHAR Otilde
ENCODING 213
SWIDTH 567 0
DWIDTH 10 0
BBX 10 20 0 -4
BITMAP
00007CB777
0000744881
0000054100
0001BFEF40
000BD91AC0
006F4007F1
01EA0005F3
06F40004F4
0CD00004F4
2F800005F4
6F500007F2
8F200009F0
AF00000CC0
CE00002F70
CD00007F30
BD0000DB00
9F0006F300
4F403E7000
09EAE80000
0046200000
ENDCHAR
STARTCHAR Odieresis
ENCODING 214
SWIDTH 567 0
DWIDTH 10 0
BBX 10 20 0 -4
BITMAP
00001B73B4
0000292381
0000054100
0001BFEF40
000BD91AC0
006F4007F1
01EA0005F3
06F40004F4
0CD00004F4
2F800005F4
6F500007F2
8F200009F0
AF00000CC0
CE00002F70
CD00007F30
BD0000DB00
9F0006F300
4F403E7000
09EAE80000
0046200000
ENDCHAR
STARTCHAR multiply
ENCODING 215
SWIDTH 281 0
DWIDTH 5 0
BBX 7 8 -1 2
BITMAP
00300110
02F42D80
00A9C900
005FA000
00AF2000
08BC6000
4C15D000
00001000
ENDCHAR
STARTCHAR Oslash
ENCODING 216
SWIDTH 597 0
DWIDTH 11 0
BBX 12 18 -1 -4
BITMAP
000000351176
000009FEEDF2
00008FA27F80
0003F700AF40
000BD004FF60
003F700CCF80
009F105F4F80
00DB00D92F70
02F807E13F60
05F51E706F30
07F39D109F10
08F4F600DB00
09FCD003F600
08FF600AE000
05FD003F6000
06F801DA0000
0DEEAEA10000
4B4363000000
ENDCHAR
STARTCHAR Ugrave
ENCODING 217
SWIDTH 574 0
DWIDTH 10 0
BBX 11 21 0 -4
BITMAP
000001300000
000005F90000
0000003B8000
000000000000
0009D1001DD0
005FA0006F80
00AF5000AF30
00EE0000EE00
03F90003F900
07F50006F500
0BF1000AF100
0EB0000DB000
2F70002F7000
5F30005F4000
8F00009F1000
AD0000EE0000
CC0006FC0000
CD001DFB0000
AF41ABAC0000
3EFFA17E1000
013200010000
ENDCHAR
STARTCHAR Uacute
ENCODING 218
SWIDTH 574 0
DWIDTH 10 0
BBX 11 21 0 -4
BITMAP
000000001100
00000004E700
0000006E7000
000000000000
0009D1001DD0
005FA0006F80
00AF5000AF30
00EE0000EE00
03F90003F900
07F50006F500
0BF1000AF100
0EB0000DB000
2F70002F7000
5F30005F4000
8F00009F1000
AD0000EE0000
CC0006FC0000
CD001DFB0000
AF41ABAC0000
3EFFA17E1000
013200010000
ENDCHAR
STARTCHAR Ucircumflex
ENCODING 219
SWIDTH 574 0
DWIDTH 10 0
BBX 11 21 0 -4
BITMAP
000000034000
0000008CF200
000006808700
000000000000
0009D1001DD0
005FA0006F80
00AF5000AF30
00EE0000EE00
03F90003F900
07F50006F500
0BF1000AF100
0EB0000DB000
2F70002F7000
5F30005F4000
8F00009F1000
AD0000EE0000
CC0006FC0000
CD001DFB0000
AF41ABAC0000
3EFFA17E1000
013200010000
ENDCHAR
STARTCHAR Udieresis
ENCODING 220
SWIDTH 574 0
DWIDTH 10 0
BBX 11 20 0 -4
BITMAP
000007B09800
000008518400
000000000000
0009D1001DD0
005FA0006F80
00AF5000AF30
00EE0000EE00
03F90003F900
07F50006F500
0BF1000AF100
0EB0000DB000
2F70002F7000
5F30005F4000
8F00009F1000
AD0000EE0000
CC0006FC0000
CD001DFB0000
AF41ABAC0000
3EFFA17E1000
013200010000
ENDCHAR
STARTCHAR Yacute
ENCODING 221
SWIDTH 532 0
DWIDTH 10 0
BBX 11 21 0 -4
BITMAP
000000002000
0000002BB000
000002E92000
000110100200
006F7000AF20
00CF1000ED00
01FB0003F800
05F60006F400
09F10009E000
0CC0000DB000
1F80003F7000
3F50009F3000
5F2003FE0000
6F301CBB0000
2FD9D7A70000
049831F30000
000007D00000
14002E600000
AF86DB000000
9FFF91000000
024200000000
ENDCHAR
STARTCHAR Thorn
ENCODING 222
SWIDTH 569 0
DWIDTH 10 0
BBX 11 17 -1 -4
BITMAP
0001CA000000
0005F6000000
0008F2110000
000CFDDED500
02BFA101BF30
07FF50002F90
019F10000FA0
00BC00003F90
00E900007F40
03F50001EC00
07F2001BE200
0AE005DC2000
0EEADC600000
2FA310000000
6F6000000000
9F4000000000
220000000000
ENDCHAR
STARTCHAR germandbls
ENCODING 223
SWIDTH 495 0
DWIDTH 9 0
BBX 11 21 -3 -9
BITMAP
0000004BD700
000003F94F30
00000BB04F40
00002F50AD00
00007E02F400
0000C907B000
0001F405D100
0005E000D800
0209A0005F40
04BE50010CC0
002FC24E16D0
007B6C4FBC30
00A80C758200
00E407C00000
03F106D00000
07C009A00000
0B801E500000
0E50AD000000
2F7AF3000000
1FFE40000000
046100000000
ENDCHAR
STARTCHAR agrave
ENCODING 224
SWIDTH 435 0
DWIDTH 8 0
BBX 11 13 -1 -1
BITMAP
000220000000
0008F6000000
00005C500000
000000000000
000044000000
001BDF200000
00BA2C800000
06E10B800110
0D900E500A10
2F604F209400
3F75CF077000
1EFC2DD90000
022001300000
ENDCHAR
STARTCHAR aacute
ENCODING 225
SWIDTH 435 0
DWIDTH 8 0
BBX 11 13 -1 -1
BITMAP
000000200000
00002CA00000
0003E9100000
000010000000
000044000000
001BDF200000
00BA2C800000
06E10B800110
0D900E500A10
2F604F209400
3F75CF077000
1EFC2DD90000
022001300000
ENDCHAR
STARTCHAR acircumflex
ENCODING 226
SWIDTH 435 0
DWIDTH 8 0
BBX 11 12 -1 -1
BITMAP
000015100000
0002CCA00000
001942A30000
000044000000
001BDF200000
00BA2C800000
06E10B800110
0D900E500A10
2F604F209400
3F75CF077000
1EFC2DD90000
022001300000
ENDCHAR
STARTCHAR atilde
ENCODING 227
SWIDTH 435 0
DWIDTH 8 0
BBX 11 11 -1 -1
BITMAP
004BC96A0000
005537930000
000044000000
001BDF200000
00BA2C800000
06E10B800110
0D900E500A10
2F604F209400
3F75CF077000
1EFC2DD90000
022001300000
ENDCHAR
STARTCHAR adieresis
ENCODING 228
SWIDTH 435 0
DWIDTH 8 0
BBX 11 11 -1 -1
BITMAP
0006C18A0000
000660850000
000044000000
001BDF200000
00BA2C800000
06E10B800110
0D900E500A10
2F604F209400
3F75CF077000
1EFC2DD90000
022001300000
ENDCHAR
STARTCHAR aring
ENCODING 229
SWIDTH 435 0
DWIDTH 8 0
BBX 11 11 -1 -1
BITMAP
0000BC200000
0001CB100000
000054000000
001BDF200000
00BA2C800000
06E10B800110
0D900E500A10
2F604F209400
3F75CF077000
1EFC2DD90000
022001300000
ENDCHAR
STARTCHAR ae
ENCODING 230
SWIDTH 594 0
DWIDTH 11 0
BBX 13 9 -1 -1
BITMAP
00004400430000
001BDF3CCF2000
00BA2DE65E0000
06E10DD2D50010
0D901FCC4002A0
2F604FB1002B20
3F75CE9004C200
1EFD37FCCA1000
02300036300000
ENDCHAR
STARTCHAR ccedilla
ENCODING 231
SWIDTH 363 0
DWIDTH 7 0
BBX 9 13 -1 -5
BITMAP
0002630000
005F9E0000
03F58E0000
0BA0650030
1F50000390
2F30002B10
1F7004C200
08FABB1000
009B300000
00DC600000
0007E00000
018B400000
0010000000
ENDCHAR
STARTCHAR egrave
ENCODING 232
SWIDTH 372 0
DWIDTH 7 0
BBX 9 13 -1 -1
BITMAP
0002100000
000BE40000
00006D2000
0000000000
0000430000
002CCF2000
01D64E0000
08D2C50010
0ECC4001A0
1FB1001B20
0EA004C200
06FCCA2000
0036300000
ENDCHAR
STARTCHAR eacute
ENCODING 233
SWIDTH 372 0
DWIDTH 7 0
BBX 9 13 -1 -1
BITMAP
0000011000
00003D8000
0005E81000
0000000000
0000430000
002CCF2000
01D64E0000
08D2C50010
0ECC4001A0
1FB1001B20
0EA004C200
06FCCA2000
0036300000
ENDCHAR
STARTCHAR ecircumflex
ENCODING 234
SWIDTH 372 0
DWIDTH 7 0
BBX 9 12 -1 -1
BITMAP
0000151000
0004DD7000
002923A100
0000430000
002CCF2000
01D64E0000
08D2C50010
0ECC4001A0
1FB1001B20
0EA004C200
06FCCA2000
0036300000
ENDCHAR
STARTCHAR edieresis
ENCODING 235
SWIDTH 372 0
DWIDTH 7 0
BBX 9 11 -1 -1
BITMAP
001B63B400
0029248100
0000430000
002CCF2000
01D64E0000
08D2C50010
0ECC4001A0
1FB1001B20
0EA004C200
06FCCA2000
0036300000
ENDCHAR
STARTCHAR igrave
ENCODING 236
SWIDTH 274 0
DWIDTH 5 0
BBX 7 13 0 -1
BITMAP
12000000
8F600000
04C50000
00000000
00000000
08C00000
1F900000
5F400120
7E001B10
9A00B400
981B6000
4EE50000
01100000
ENDCHAR
STARTCHAR iacute
ENCODING 237
SWIDTH 274 0
DWIDTH 5 0
BBX 7 13 0 -1
BITMAP
00002000
0007F200
00AC5000
00100000
00000000
08C00000
1F900000
5F400120
7E001B10
9A00B400
981B6000
4EE50000
01100000
ENDCHAR
STARTCHAR icircumflex
ENCODING 238
SWIDTH 274 0
DWIDTH 5 0
BBX 7 12 0 -1
BITMAP
00340000
07CF3000
58169000
00000000
08C00000
1F900000
5F400120
7E001B10
9A00B400
981B6000
4EE50000
01100000
ENDCHAR
STARTCHAR idieresis
ENCODING 239
SWIDTH 274 0
DWIDTH 5 0
BBX 7 11 0 -1
BITMAP
4C36B100
58166000
00000000
08C00000
1F900000
5F400120
7E001B10
9A00B400
981B6000
4EE50000
01100000
ENDCHAR
STARTCHAR eth
ENCODING 240
SWIDTH 393 0
DWIDTH 7 0
BBX 10 13 -1 -1
BITMAP
0000270000
00000D2220
00028DFE60
000CAAA000
000116B000
007FECB000
03F61EA017
0AF40C85B2
0FBC7EE810
1F27BF2000
0E30BA0000
09DCC10000
0044000000
ENDCHAR
STARTCHAR ntilde
ENCODING 241
SWIDTH 461 0
DWIDTH 8 0
BBX 11 11 -1 -1
BITMAP
002BC96B0000
003736950000
000000000000
00785DC00000
00ECB9F30000
03FB05F20030
07E108E00660
0AB00CA03A00
0E701F63C100
3F301FDC2000
120003510000
ENDCHAR
STARTCHAR ograve
ENCODING 242
SWIDTH 393 0
DWIDTH 7 0
BBX 10 12 -1 -1
BITMAP
0002100000
000BE40000
00006D2000
0001100000
007FE70000
03F61E3017
0AF40C65B2
0FBC7EE810
1F27BF2000
0E30BA0000
09DCC10000
0044000000
ENDCHAR
STARTCHAR oacute
ENCODING 243
SWIDTH 393 0
DWIDTH 7 0
BBX 10 12 -1 -1
BITMAP
0000011000
00003D8000
0005E81000
0001100000
007FE70000
03F61E3017
0AF40C65B2
0FBC7EE810
1F27BF2000
0E30BA0000
09DCC10000
0044000000
ENDCHAR
STARTCHAR ocircumflex
ENCODING 244
SWIDTH 393 0
DWIDTH 7 0
BBX 10 12 -1 -1
BITMAP
0000430000
001ACE1000
0076096000
0001100000
007FE70000
03F61E3017
0AF40C65B2
0FBC7EE810
1F27BF2000
0E30BA0000
09DCC10000
0044000000
ENDCHAR
STARTCHAR otilde
ENCODING 245
SWIDTH 393 0
DWIDTH 7 0
BBX 10 11 -1 -1
BITMAP
009CB79400
0183587000
0001100000
007FE70000
03F61E3017
0AF40C65B2
0FBC7EE810
1F27BF2000
0E30BA0000
09DCC10000
0044000000
ENDCHAR
STARTCHAR odieresis
ENCODING 246
SWIDTH 393 0
DWIDTH 7 0
BBX 10 11 -1 -1
BITMAP
003C46B100
0048167000
0001100000
007FE70000
03F61E3017
0AF40C65B2
0FBC7EE810
1F27BF2000
0E30BA0000
09DCC10000
0044000000
ENDCHAR
STARTCHAR divide
ENCODING 247
SWIDTH 350 0
DWIDTH 6 0
BBX 8 7 -1 3
BITMAP
00003100
0003F700
00123210
0DFFFFF2
15321110
002D7000
00161000
ENDCHAR
STARTCHAR oslash
ENCODING 248
SWIDTH 406 0
DWIDTH 7 0
BBX 10 10 -1 -2
BITMAP
000011A500
004EEEB000
01E90C6007
07F70993B4
0CBE7CEA20
0D55AF5000
0B708D0000
0CEBD30000
8E44100000
3100000000
ENDCHAR
STARTCHAR ugrave
ENCODING 249
SWIDTH 468 0
DWIDTH 8 0
BBX 10 12 0 -1
BITMAP
0022000000
008F600000
0005C50000
0000000000
07700A5000
4F505F5000
9E00AF2004
CA00CD0047
E700D602B0
E806F72C20
8FDC7FD200
0230030000
ENDCHAR
STARTCHAR uacute
ENCODING 250
SWIDTH 468 0
DWIDTH 8 0
BBX 10 12 0 -1
BITMAP
0000020000
0001AD0000
001DA20000
0001000000
07700A5000
4F505F5000
9E00AF2004
CA00CD0047
E700D602B0
E806F72C20
8FDC7FD200
0230030000
ENDCHAR
STARTCHAR ucircumflex
ENCODING 251
SWIDTH 468 0
DWIDTH 8 0
BBX 10 12 0 -1
BITMAP
0000520000
001BCD0000
00851A5000
0000000000
07700A5000
4F505F5000
9E00AF2004
CA00CD0047
E700D602B0
E806F72C20
8FDC7FD200
0230030000
ENDCHAR
STARTCHAR udieresis
ENCODING 252
SWIDTH 468 0
DWIDTH 8 0
BBX 10 11 0 -1
BITMAP
007C199000
0076084000
0000000000
07700A5000
4F505F5000
9E00AF2004
CA00CD0047
E700D602B0
E806F72C20
8FDC7FD200
0230030000
ENDCHAR
STARTCHAR yacute
ENCODING 253
SWIDTH 406 0
DWIDTH 7 0
BBX 8 19 -1 -8
BITMAP
00000020
000006F3
00009D50
00001000
04C402D6
06F303F6
0AE006F1
0E900CB0
3F406F70
4F33EF30
1EEE9F00
02638C00
0000C800
0001F500
0005F200
0008E000
000CB000
001F8000
00072000
ENDCHAR
STARTCHAR thorn
ENCODING 254
SWIDTH 451 0
DWIDTH 8 0
BBX 12 21 -2 -8
BITMAP
000015000000
0000AF300000
0000BE000000
0000EA000000
0002F6000000
0005F1000000
0009C4CC1000
000DCB6F4000
001FB00E5001
005E203F2083
008B00BB0680
00CEC9F37A00
01FDFFED8000
04F273420000
08C000000000
0C9000000000
1F6000000000
5F3000000000
9F0000000000
CC0000000000
550000000000
ENDCHAR
STARTCHAR ydieresis
ENCODING 255
SWIDTH 406 0
DWIDTH 7 0
BBX 8 18 -1 -8
BITMAP
001B63B4
00292481
00000000
04C402D6
06F303F6
0AE006F1
0E900CB0
3F406F70
4F33EF30
1EEE9F00
02638C00
0000C800
0001F500
0005F200
0008E000
000CB000
001F8000
00072000
ENDCHAR
STARTCHAR dotlessi
ENCODING 305
SWIDTH 274 0
DWIDTH 5 0
BBX 7 8 0 -1
BITMAP
08C00000
1F900000
5F400120
7E001B10
9A00B400
981B6000
4EE50000
01100000
ENDCHAR
STARTCHAR Lslash
ENCODING 321
SWIDTH 492 0
DWIDTH 9 0
BBX 12 18 -2 -4
BITMAP
000000000120
000000008FF6
00000006F7D8
0000000EB1E6
0000004F69D0
0000007FBE30
003324CFD300
003CFFFB1000
000002F60000
000007FA9000
0008EFEA7000
000A6E800000
00005F200000
0000BA000000
3CFEF3000000
BC7EED612820
7DB32BFFFD00
000000377200
ENDCHAR
STARTCHAR lslash
ENCODING 322
SWIDTH 218 0
DWIDTH 4 0
BBX 7 14 -2 -1
BITMAP
00002400
0000CF00
0000DC00
0001F800
0005F400
0008F770
08DFFC70
2C7F8000
004F4000
007E0000
00BB0000
00E70000
03F30000
00400000
ENDCHAR
STARTCHAR OE
ENCODING 338
SWIDTH 918 0
DWIDTH 17 0
BBX 17 18 0 -4
BITMAP
000005410000023000
0001BFEF5007DBAD30
000BD91AC1CD300AB0
006F4007FBF4000BB0
01EA0005FFB0003F80
06F40004FF7002DE10
0CD00004FF70002200
2F800005FFC0000000
6F500007F7EA730000
8F200009FADAD40000
AF00000CFA00000000
CE00002FD000000000
CD00007F8000002300
BD0000DF800000A100
9F0006FFC000079000
4F403E8CF9228D1000
09EAE801BFFFA10000
004620000242000000
ENDCHAR
STARTCHAR oe
ENCODING 339
SWIDTH 583 0
DWIDTH 11 0
BBX 13 9 -1 -1
BITMAP
00011000440000
007FE82CCF2000
03F61EE64E1000
0AF60CD2D60010
0FAF9EDD6001A0
1F25BFB2001B20
0E30BF9004C300
09DCC7FBCA2000
00440036300000
ENDCHAR
STARTCHAR Scaron
ENCODING 352
SWIDTH 474 0
DWIDTH 9 0
BBX 12 21 -1 -4
BITMAP
000000220031
0000002F6C70
00000007C400
000002451000
00009FBAF400
000BE400BC00
005F5000AD00
00AF0000EB00
009F2005E400
005F90000000
000CF6000000
0002EF400000
00004FD00000
000009F30000
000003F60000
043000F50000
9F2001F30000
CF2006D00000
8F702E600000
1DFCE8000000
015620000000
ENDCHAR
STARTCHAR scaron
ENCODING 353
SWIDTH 351 0
DWIDTH 6 0
BBX 7 13 0 -1
BITMAP
01300310
01D8A910
004C6000
00000000
008D1000
05FB0000
07F90000
1C6E1000
931E7000
110AD000
5E16C000
5FBC3000
05820000
ENDCHAR
STARTCHAR Ydieresis
ENCODING 376
SWIDTH 532 0
DWIDTH 10 0
BBX 11 20 0 -4
BITMAP
00001B73B400
000029238100
000110000200
006F7000AF20
00CF1000ED00
01FB0003F800
05F60006F400
09F10009E000
0CC0000DB000
1F80003F7000
3F50009F3000
5F2003FE0000
6F301CBB0000
2FD9D7A70000
049831F30000
000007D00000
14002E600000
AF86DB000000
9FFF91000000
024200000000
ENDCHAR
STARTCHAR Zcaron
ENCODING 381
SWIDTH 455 0
DWIDTH 8 0
BBX 12 21 -2 -4
BITMAP
000000130031
0000000C8AA1
00000004C700
000000111000
0003DFFFFFB0
0008D9755DD0
000100002FA0
00000000AF30
00000005F900
0000002EC100
000001CE2000
00000AF40000
00007F600000
0004F9000000
002EB0000000
00BD10000000
05F400000000
0D9000000000
5FACEFFE7000
4FDBBCEE2000
010000000000
ENDCHAR
STARTCHAR zcaron
ENCODING 382
SWIDTH 349 0
DWIDTH 6 0
BBX 11 19 -3 -8
BITMAP
000014002200
00000BA8B100
000002C80000
000001210000
0009EFFF2000
000A627C0000
000001D50000
000009B00020
00007E400920
0006FCD7A400
000481BD3000
00007CF50000
002C94F10000
01D709B00000
09A02F500000
2F209D000000
5F03F5000000
3F9EB0000000
08C800000000
ENDCHAR
STARTCHAR circumflex
ENCODING 710
SWIDTH 567 0
DWIDTH 10 0
BBX 6 3 3 10
BITMAP
000520
01BCC0
1851A4
ENDCHAR
STARTCHAR caron
ENCODING 711
SWIDTH 567 0
DWIDTH 10 0
BBX 6 3 3 10
BITMAP
140022
0B99B1
03C800
ENDCHAR
STARTCHAR breve
ENCODING 728
SWIDTH 567 0
DWIDTH 10 0
BBX 6 3 3 9
BITMAP
1E10B5
0CDDA0
014200
ENDCHAR
STARTCHAR dotaccent
ENCODING 729
SWIDTH 567 0
DWIDTH 10 0
BBX 3 2 5 10
BITMAP
6C10
6600
ENDCHAR
STARTCHAR ring
ENCODING 730
SWIDTH 567 0
DWIDTH 10 0
BBX 3 3 5 9
BITMAP
AC40
CB20
0100
ENDCHAR
STARTCHAR ogonek
ENCODING 731
SWIDTH 567 0
DWIDTH 10 0
BBX 5 3 4 -2
BITMAP
570000
E50530
BFC500
ENDCHAR
STARTCHAR tilde
ENCODING 732
SWIDTH 567 0
DWIDTH 10 0
BBX 6 2 3 10
BITMAP
3BC96A
463794
ENDCHAR
STARTCHAR hungarumlaut
ENCODING 733
SWIDTH 567 0
DWIDTH 10 0
BBX 7 4 3 9
BITMAP
00200200
06F38F10
9C5BC400
10010000
ENDCHAR
STARTCHAR endash
ENCODING 8211
SWIDTH 353 0
DWIDTH 6 0
BBX 7 3 -1 4
BITMAP
02344430
2FFEEED0
13000000
ENDCHAR
STARTCHAR emdash
ENCODING 8212
SWIDTH 508 0
DWIDTH 9 0
BBX 10 3 -1 4
BITMAP
0245555531
3FFFFEFFFC
0210000021
ENDCHAR
STARTCHAR quoteleft
ENCODING 8216
SWIDTH 155 0
DWIDTH 3 0
BBX 3 5 0 8
BITMAP
0020
0580
0D40
3FD0
1A40
ENDCHAR
STARTCHAR quoteright
ENCODING 8217
SWIDTH 154 0
DWIDTH 3 0
BBX 3 5 1 8
BITMAP
0200
AF20
AF20
4A00
7100
ENDCHAR
STARTCHAR quotesinglbase
ENCODING 8218
SWIDTH 188 0
DWIDTH 3 0
BBX 3 5 -1 -3
BITMAP
3B40
9F60
1D20
5700
1000
ENDCHAR
STARTCHAR quotedblleft
ENCODING 8220
SWIDTH 289 0
DWIDTH 5 0
BBX 6 5 0 8
BITMAP
002011
0581B1
0D48A0
3FDCF4
1A4780
ENDCHAR
STARTCHAR quotedblright
ENCODING 8221
SWIDTH 288 0
DWIDTH 5 0
BBX 5 5 1 8
BITMAP
030210
BF7F90
9F5E70
4A0C10
613300
ENDCHAR
STARTCHAR quotedblbase
ENCODING 8222
SWIDTH 323 0
DWIDTH 6 0
BBX 5 5 -1 -3
BITMAP
3B4990
9F9FC0
1D2880
571A10
100000
ENDCHAR
STARTCHAR bullet
ENCODING 8226
SWIDTH 180 0
DWIDTH 3 0
BBX 4 5 -1 3
BITMAP
0010
07F8
1EFB
2FF8
0BB1
ENDCHAR
STARTCHAR ellipsis
ENCODING 8230
SWIDTH 614 0
DWIDTH 11 0
BBX 10 3 -1 -1
BITMAP
0330141024
6FB0CF53FE
2510440162
ENDCHAR
STARTCHAR perthousand
ENCODING 8240
SWIDTH 851 0
DWIDTH 15 0
BBX 15 15 0 -1
BITMAP
0000000001100000
01BE90005E200000
09A0D302E5000000
1F20C50B90000000
4D01F27C00000000
3D07B3E300000000
0DDD2C7000000000
01308B0000000000
0003E27EB007EB10
000D65D1A65D2A70
008C0C6098C60880
04F30F20C6F20B60
1D800F24E1F23E10
9D100ADE50ADE500
4100004200042000
ENDCHAR
STARTCHAR guilsinglleft
ENCODING 8249
SWIDTH 202 0
DWIDTH 4 0
BBX 5 8 -1 -1
BITMAP
001B30
01C600
0BA000
8E1000
4F2000
0A8000
01D100
002100
ENDCHAR
STARTCHAR guilsinglright
ENCODING 8250
SWIDTH 202 0
DWIDTH 4 0
BBX 5 8 -2 -1
BITMAP
00C200
007A00
001E40
000BB0
004E30
01D400
0B5000
120000
ENDCHAR
STARTCHAR fraction
ENCODING 8260
SWIDTH 600 0
DWIDTH 11 0
BBX 11 15 0 -1
BITMAP
000000000030
000000001C80
000000009C00
00000004E200
0000001D5000
000000A90000
000005D10000
00001E400000
0000B8000000
0006D1000000
002E40000000
00BA00000000
07E100000000
2F7000000000
230000000000
ENDCHAR
STARTCHAR Euro
ENCODING 8364
SWIDTH 334 0
DWIDTH 6 0
BBX 8 11 -1 1
BITMAP
00003AA2
0004E45B
001E6014
009D0000
19EDA920
29F54400
9FECC600
19900000
07800320
02C13C10
004A9100
ENDCHAR
STARTCHAR minus
ENCODING 8722
SWIDTH 353 0
DWIDTH 6 0
BBX 7 3 -1 4
BITMAP
02344430
2FFEEED0
13000000
ENDCHAR
STARTCHAR fi
ENCODING 64257
SWIDTH 549 0
DWIDTH 10 0
BBX 14 22 -2 -9
BITMAP
00003730000000
00008F60015000
00007F400AD000
00008F10043000
0000BB00000000
0000E600000000
0003F2008C0000
0007C003F90000
000CDCABF40022
00BF6108E001B1
00EC0009A00B40
00BF700A82C600
00E7E504EE5000
04E06E00210000
07B01F40000000
0B800E50000000
0F502F30000000
4F109D00000000
7D04F600000000
AD6EA000000000
9FFA0000000000
16400000000000
ENDCHAR
STARTCHAR fl
ENCODING 64258
SWIDTH 516 0
DWIDTH 9 0
BBX 12 22 -2 -9
BITMAP
000037300141
00008F6007F5
00007F4008F2
00008F100BD0
0000BB000EA0
0000E6003F60
0003F2007F20
0007C002BD00
000CDCA8F900
00BF6102F500
00EC0006F100
00BF7009D000
00E7E50D9000
04E06E032000
07B01F400000
0B800E500000
0F502F300000
4F109D000000
7D04F6000000
AD6EA0000000
9FFA00000000
164000000000
ENDCHAR
STARTCHAR .notdef
ENCODING -1
SWIDTH 280 0
DWIDTH 5 0
BBX 1 1 0 0
BITMAP
00
ENDCHAR
ENDFONT
